<!DOCTYPE svg PUBLIC "-//W3C//DTD SVG 1.1//EN" "http://www.w3.org/Graphics/SVG/1.1/DTD/svg11.dtd">
<!-- Uploaded to: SVG Repo, www.svgrepo.com, Transformed by: SVG Repo Mixer Tools -->
<svg height="256px" width="256px" version="1.1" id="Layer_1" xmlns="http://www.w3.org/2000/svg" xmlns:xlink="http://www.w3.org/1999/xlink" viewBox="-296.96 -296.96 1105.92 1105.92" xml:space="preserve" fill="#c9c9c9" stroke="#c9c9c9" stroke-width="0.00512">
<g id="SVGRepo_bgCarrier" stroke-width="0">
<path transform="translate(-296.96, -296.96), scale(34.56)" d="M16,30.566300323780844C18.25877235503387,31.0276709841853,19.575467677923957,27.773169946967954,21.624767285791435,26.717098663700817C23.693769655275474,25.650873901330666,27.12693402329341,26.462297253076542,28.08237086222028,24.3398584446198C29.118278707516478,22.038658696752698,26.269019213436138,19.7006078580598,25.907631078828388,17.20300421462585C25.65920106434342,15.486069844355315,26.25105873782157,13.823792330316326,26.309886941173982,12.089975631122435C26.398972229723082,9.464405715045777,28.12010306769008,6.259622731651415,26.344637358704297,4.323318238794398C24.651714139321943,2.4770337292363136,21.40775979536812,4.507800985303465,18.943787628762838,4.056584098260737C16.669829794779275,3.640163738882198,14.800319015557298,1.5908709721054701,12.496919509041078,1.787443757152161C10.144679536542542,1.9881846017968339,7.456494737245041,3.033890190415376,6.369718093101552,5.129658856244882C5.210560478672504,7.365008888994877,7.206784375417093,10.053141985480815,6.913808405237553,12.554062061153287C6.709938010361341,14.294353468222411,5.429069659522519,15.660805254671628,4.9389520980391275,17.343054372772507C4.225572155059501,19.791615441092844,1.6700543092743039,22.816644835307024,3.3699090758737924,24.717922306064157C5.194878268769556,26.75913952029695,8.979811375909293,23.491266722300463,11.464444529490082,24.641778939891427C13.754608037756494,25.702241766262475,13.527282064120792,30.061229724466987,16,30.566300323780844" fill="#1ba18f" strokewidth="0"/>
</g>
<g id="SVGRepo_tracerCarrier" stroke-linecap="round" stroke-linejoin="round"/>
<g id="SVGRepo_iconCarrier"> <circle style="fill:#ECF0F1;" cx="256" cy="256" r="245.551"/> <polygon style="fill:#20a78c;" points="411.159,130.395 381.605,100.841 256,226.446 130.395,100.841 100.841,130.395 226.446,256 100.841,381.605 130.395,411.159 256,285.554 381.605,411.159 411.159,381.605 285.554,256 "/> <g> <path style="fill:#231F20;" d="M437.019,74.981C388.668,26.628,324.38,0,256,0S123.332,26.628,74.981,74.981S0,187.62,0,256 s26.628,132.668,74.981,181.019S187.62,512,256,512s132.668-26.628,181.019-74.981S512,324.38,512,256 S485.372,123.332,437.019,74.981z M256,491.102C126.365,491.102,20.898,385.635,20.898,256S126.365,20.898,256,20.898 S491.102,126.365,491.102,256S385.635,491.102,256,491.102z"/> <path style="fill:#231F20;" d="M168.033,83.896C195.44,69.827,225.037,62.694,256,62.694s60.56,7.134,87.967,21.202 c1.527,0.784,3.157,1.155,4.763,1.155c3.793,0,7.453-2.072,9.305-5.68c2.635-5.134,0.609-11.432-4.524-14.067 C323.121,49.705,290.314,41.796,256,41.796s-67.121,7.909-97.51,23.508c-5.135,2.635-7.16,8.934-4.524,14.067 C156.602,84.505,162.901,86.531,168.033,83.896z"/> <path style="fill:#231F20;" d="M446.696,158.49c-2.635-5.134-8.933-7.161-14.067-4.524c-5.135,2.635-7.16,8.934-4.524,14.067 c14.068,27.407,21.202,57.003,21.202,87.967s-7.134,60.56-21.202,87.967c-2.635,5.134-0.609,11.432,4.524,14.067 c1.527,0.784,3.157,1.155,4.763,1.155c3.793,0,7.453-2.073,9.305-5.68c15.599-30.388,23.508-63.194,23.508-97.509 S462.295,188.879,446.696,158.49z"/> <path style="fill:#231F20;" d="M343.967,428.104c-27.407,14.068-57.003,21.202-87.967,21.202s-60.56-7.134-87.967-21.202 c-5.136-2.634-11.432-0.61-14.067,4.524c-2.635,5.134-0.609,11.432,4.524,14.067c30.389,15.599,63.195,23.508,97.51,23.508 s67.121-7.909,97.51-23.508c5.135-2.635,7.16-8.934,4.524-14.067C355.399,427.495,349.099,425.47,343.967,428.104z"/> <path style="fill:#231F20;" d="M79.37,153.966c-5.134-2.634-11.431-0.609-14.067,4.524C49.705,188.879,41.796,221.686,41.796,256 s7.909,67.121,23.508,97.51c1.852,3.607,5.511,5.68,9.305,5.68c1.606,0,3.236-0.371,4.763-1.155 c5.135-2.635,7.16-8.934,4.524-14.067C69.827,316.56,62.694,286.963,62.694,256s7.134-60.56,21.202-87.967 C86.53,162.9,84.505,156.601,79.37,153.966z"/> <path style="fill:#231F20;" d="M418.547,123.006l-29.554-29.554c-4.08-4.08-10.697-4.08-14.778,0L256,211.669L137.783,93.453 c-4.08-4.08-10.697-4.08-14.778,0l-29.554,29.554c-4.08,4.08-4.08,10.697,0,14.778L211.669,256L93.453,374.217 c-4.08,4.08-4.08,10.697,0,14.778l29.554,29.554c4.08,4.08,10.697,4.08,14.778,0L256,300.331l118.217,118.217 c2.041,2.041,4.715,3.06,7.388,3.06c2.674,0,5.349-1.02,7.388-3.06l29.554-29.554c4.08-4.08,4.08-10.697,0-14.778L300.331,256 l118.217-118.217C422.628,133.703,422.628,127.087,418.547,123.006z M278.165,248.612c-4.08,4.08-4.08,10.697,0,14.778 l118.217,118.216l-14.777,14.777L263.388,278.165c-2.041-2.04-4.715-3.061-7.388-3.061c-2.674,0-5.349,1.021-7.388,3.061 L130.395,396.382l-14.777-14.777l118.217-118.217c4.08-4.08,4.08-10.697,0-14.778L115.618,130.395l14.777-14.777l118.217,118.217 c4.08,4.079,10.697,4.079,14.778,0l118.216-118.217l14.777,14.777L278.165,248.612z"/> </g> </g>
</svg>