<!DOCTYPE svg PUBLIC "-//W3C//DTD SVG 1.1//EN" "http://www.w3.org/Graphics/SVG/1.1/DTD/svg11.dtd">
<!-- Uploaded to: SVG Repo, www.svgrepo.com, Transformed by: SVG Repo Mixer Tools -->
<svg fill="#0f766e" height="800px" width="800px" version="1.1" id="Capa_1" xmlns="http://www.w3.org/2000/svg" xmlns:xlink="http://www.w3.org/1999/xlink" viewBox="0 0 408.952 408.952" xml:space="preserve" stroke="#0f766e">
<g id="SVGRepo_bgCarrier" stroke-width="0"/>
<g id="SVGRepo_tracerCarrier" stroke-linecap="round" stroke-linejoin="round"/>
<g id="SVGRepo_iconCarrier"> <path d="M383.634,23.142c-32.18-32.179-86.113-30.606-120.23,3.51c-7.227,7.228-12.977,15.35-17.271,23.96l-22.908,1.896 c-6.688,0.554-12.963,3.461-17.709,8.206L10.48,255.749c-11.072,11.072-11.072,29.022,0,40.094l104.806,104.806 c11.071,11.071,29.022,11.073,40.094,0.001l195.035-195.035c4.746-4.746,7.652-11.021,8.207-17.708l2.475-29.908 c6.897-3.995,13.277-8.877,19.027-14.627C414.24,109.255,415.814,55.322,383.634,23.142z M363.511,128.825l4.566-55.181 c0.686-8.305-2.316-16.489-8.209-22.383c-5.893-5.894-14.08-8.895-22.383-8.208l-35.111,2.905c-1.893,1.515-3.717,3.127-5.447,4.856 c-16.717,16.718-22.529,39.975-17.055,59.999c4.541,1.684,8.803,4.341,12.453,7.99c13.553,13.552,13.551,35.525,0,49.078 c-13.553,13.553-35.525,13.553-49.078,0c-13.221-13.22-13.539-34.446-0.969-48.06c3.85,9.921,9.709,19.148,17.617,27.058 c4.297,4.296,11.26,4.296,15.557,0c4.297-4.296,4.297-11.261,0-15.557c-23.602-23.602-22.027-63.579,3.508-89.115 c25.539-25.537,65.516-27.111,89.117-3.51c23.602,23.602,22.027,63.579-3.51,89.116 C364.222,128.161,363.863,128.487,363.511,128.825z"/> </g>
</svg>