<!DOCTYPE svg PUBLIC "-//W3C//DTD SVG 1.1//EN" "http://www.w3.org/Graphics/SVG/1.1/DTD/svg11.dtd">
<!-- Uploaded to: SVG Repo, www.svgrepo.com, Transformed by: SVG Repo Mixer Tools -->
<svg width="256px" height="256px" viewBox="-22.8 -22.8 235.60 235.60" fill="none" xmlns="http://www.w3.org/2000/svg" stroke="#0f0f0f" stroke-width="2.66">
<g id="SVGRepo_bgCarrier" stroke-width="0">
<path transform="translate(-22.8, -22.8), scale(7.3625)" d="M16,27.88777455314994C17.804783222621182,27.403286019785906,19.231013549356675,26.176238466814187,20.904676787733695,25.345080849919853C22.619453318356726,24.493505967937587,25.20173033436835,24.64638206963407,26.016155763912135,22.913653138349346C26.875412467540894,21.085543533996855,24.41941372816451,19.05264881236477,24.79514512944788,17.06792396434517C25.21265028231012,14.86253775432502,28.424628498798373,13.606167158819547,28.200976742658952,11.372779870418963C27.99646209158802,9.330495786100121,25.720999133744453,7.927253050101809,23.8058677899836,7.18899668561216C22.002782499300316,6.493932508472974,19.985511215706097,7.903227314888581,18.100218464152192,7.47907873625263C16.27153533859972,7.067666053612581,15.110997758517431,4.663654779647324,13.24252431241766,4.812481357708803C11.435474544788384,4.956415452070397,10.556013010528137,7.13466028697504,9.087131062670526,8.196984017984914C7.4398602088715675,9.388322043442873,5.108677871115386,9.733993672380624,4.043405070028541,11.46546166687033C2.960049620495873,13.226320749734402,2.3888893330512397,15.701806406957878,3.3406822177519224,17.537119471361382C4.354607652004521,19.492240827831697,7.843180987835841,18.96489073087354,8.92692026744958,20.88219443101417C10.183363622341679,23.1050385584415,7.672472040406435,26.613399187393284,9.486611128869168,28.41022563605278C11.056944378270899,29.965572926499746,13.865361810135932,28.460811643093663,16,27.88777455314994" fill="#1daa8e" strokewidth="0"/>
</g>
<g id="SVGRepo_tracerCarrier" stroke-linecap="round" stroke-linejoin="round"/>
<g id="SVGRepo_iconCarrier"> <path fill-rule="evenodd" clip-rule="evenodd" d="M38.155 140.475L48.988 62.1108L92.869 67.0568L111.437 91.0118L103.396 148.121L38.155 140.475ZM84.013 94.0018L88.827 71.8068L54.046 68.3068L44.192 135.457L98.335 142.084L104.877 96.8088L84.013 94.0018ZM59.771 123.595C59.394 123.099 56.05 120.299 55.421 119.433C64.32 109.522 86.05 109.645 92.085 122.757C91.08 123.128 86.59 125.072 85.71 125.567C83.192 118.25 68.445 115.942 59.771 123.595ZM76.503 96.4988L72.837 99.2588L67.322 92.6168L59.815 96.6468L56.786 91.5778L63.615 88.1508L59.089 82.6988L64.589 79.0188L68.979 85.4578L76.798 81.5328L79.154 86.2638L72.107 90.0468L76.503 96.4988Z" fill="#f8f7f7"/> </g>
</svg>